<?xml version="1.0" encoding="utf-8"?>
<!-- Generator: Adobe Illustrator 24.2.1, SVG Export Plug-In . SVG Version: 6.00 Build 0)  -->
<svg version="1.1"
	 id="svg8" xmlns:cc="http://creativecommons.org/ns#" xmlns:dc="http://purl.org/dc/elements/1.1/" xmlns:inkscape="http://www.inkscape.org/namespaces/inkscape" xmlns:rdf="http://www.w3.org/1999/02/22-rdf-syntax-ns#" xmlns:sodipodi="http://sodipodi.sourceforge.net/DTD/sodipodi-0.dtd" xmlns:svg="http://www.w3.org/2000/svg"
	 xmlns="http://www.w3.org/2000/svg" xmlns:xlink="http://www.w3.org/1999/xlink" x="0px" y="0px"
	 viewBox="-13.771 -268.568 1190.551 841.89" enable-background="new -13.771 -268.568 1190.551 841.89" xml:space="preserve">
<sodipodi:namedview  bordercolor="#666666" borderopacity="1.0" fit-margin-bottom="0" fit-margin-left="0" fit-margin-right="0" fit-margin-top="0" id="base" inkscape:current-layer="layer1-5" inkscape:cx="1312.4877" inkscape:cy="-247.50916" inkscape:document-units="mm" inkscape:pageopacity="0.0" inkscape:pageshadow="2" inkscape:window-height="745" inkscape:window-maximized="1" inkscape:window-width="1366" inkscape:window-x="-8" inkscape:window-y="-8" inkscape:zoom="0.175" pagecolor="#ffffff" showgrid="false" showguides="false">
	</sodipodi:namedview>
<g id="layer1" transform="translate(805.60654,100.39806)" inkscape:groupmode="layer" inkscape:label="Layer 1">
	<g id="g975">
		<g id="layer1-5" transform="translate(-482.6338,-315.5882)" inkscape:label="Layer 1">
			<g id="layer1-2" transform="matrix(0.43272125,0,0,0.43272125,12.094952,193.20654)" inkscape:label="Layer 1">
				<g id="g1006" transform="matrix(0.26296827,0,0,0.26296827,-799.54693,61.582129)">
					<g id="g35" transform="matrix(12.509277,0,0,12.509277,438.06846,8.29825)">
						<path id="path33" inkscape:connector-curvature="0" fill="#000083" d="M306.568,26.007h18.506v89.05h31.903v17.577h-50.332
							L306.568,26.007"/>
					</g>
					<g id="g41" transform="matrix(12.509277,0,0,12.509277,438.06846,8.29825)">
						<path id="path39" inkscape:connector-curvature="0" fill="#000083" d="M399.837,52.721c9.805-0.123,19.1,4.347,25.129,12.079
							V54.309h17.266v78.48h-17.266v-10.492c-6.03,7.733-15.324,12.203-25.129,12.08c-21.526,0-37.865-18.391-37.865-40.847
							C361.971,71.073,378.31,52.721,399.837,52.721 M402.975,68.44c-13.978,0-23.233,10.996-23.233,25.089
							c0,14.094,9.409,25.127,23.233,25.127c13.822,0,23.23-10.995,23.23-25.127S416.95,68.44,402.975,68.44"/>
					</g>
					<g id="g47" transform="matrix(12.509277,0,0,12.509277,438.06846,8.29825)">
						<path id="path45" inkscape:connector-curvature="0" fill="#000083" d="M455.668,119.16l41.156-49.171h-40.538v-15.68h62.839
							v13.822l-41,48.977h41.93v15.68h-64.387V119.16"/>
					</g>
					<g id="g53" transform="matrix(12.509277,0,0,12.509277,438.06846,8.29825)">
						<path id="path51" inkscape:connector-curvature="0" fill="#000083" d="M563.96,52.721c9.802-0.123,19.1,4.347,25.126,12.079
							V54.309h17.269v78.48h-17.269v-10.492c-6.026,7.733-15.324,12.203-25.126,12.08c-21.526,0-37.828-18.391-37.828-40.847
							C526.132,71.073,542.434,52.721,563.96,52.721 M567.095,68.44c-13.978,0-23.23,10.996-23.23,25.089
							c0,14.094,9.408,25.127,23.23,25.127c13.821,0,23.23-10.995,23.23-25.127S581.073,68.44,567.095,68.44"/>
					</g>
					<g id="g59" transform="matrix(12.509277,0,0,12.509277,438.06846,8.29825)">
						<path id="path57" inkscape:connector-curvature="0" fill="#000083" d="M655.68,52.721c9.794-0.129,19.081,4.343,25.09,12.079
							V19.696h17.266v113.093H680.77v-10.492c-6.009,7.737-15.296,12.208-25.09,12.08c-21.526,0-37.865-18.391-37.865-40.847
							C617.815,71.073,634.154,52.721,655.68,52.721 M658.816,68.44c-13.978,0-23.23,10.996-23.23,25.089
							c0,14.094,9.448,25.127,23.23,25.127c13.785,0,23.23-10.995,23.23-25.127S672.793,68.44,658.816,68.44"/>
					</g>
					<g id="g65" transform="matrix(12.509277,0,0,12.509277,438.06846,8.29825)">
						<path id="path63" inkscape:connector-curvature="0" fill="#000083" d="M747.362,52.721c9.794-0.129,19.083,4.343,25.09,12.079
							V54.309h17.229v78.48h-17.305v-10.492c-6.01,7.737-15.296,12.208-25.09,12.08c-21.526,0-37.865-18.391-37.865-40.847
							C709.42,71.073,725.836,52.721,747.362,52.721 M750.5,68.44c-13.978,0-23.232,10.996-23.232,25.089
							c0,14.094,9.448,25.127,23.232,25.127c13.782,0,23.23-10.995,23.23-25.127S764.475,68.44,750.5,68.44"/>
					</g>
				</g>
				<g id="g942" transform="matrix(1.3719271,0,0,1.3719271,169.4857,-38.493576)">
					<g id="g71" transform="matrix(3.3097462,0,0,3.3097462,-688.02908,65.088537)">
						
							<linearGradient id="path69_1_" gradientUnits="userSpaceOnUse" x1="67.3742" y1="201.6768" x2="134.133" y2="202.1939" gradientTransform="matrix(5.5697 0 0 -5.5697 -374.707 1201.3585)">
							<stop  offset="9.999999e-08" style="stop-color:#FFB900"/>
							<stop  offset="0.3376" style="stop-color:#F38000"/>
							<stop  offset="0.5673" style="stop-color:#F83C72"/>
							<stop  offset="0.78" style="stop-color:#FC1CBE"/>
							<stop  offset="0.93" style="stop-color:#FE08ED"/>
							<stop  offset="1" style="stop-color:#FF00FF"/>
						</linearGradient>
						<path id="path69" inkscape:connector-curvature="0" fill="url(#path69_1_)" d="M95.586,155.101
							c-1.356,0.009-2.692-0.337-3.872-1.006C81.609,148.248,6.768,101.323,3.942,99.89c-2.151-1.004-3.62-3.06-3.872-5.42V28.651
							c-0.056-2.457,1.159-4.769,3.213-6.117l0.542-0.31c7.24-4.491,31.477-19.281,35.31-21.411C40.015,0.291,41.017,0.011,42.04,0
							c0.959,0.011,1.901,0.25,2.749,0.697c0,0,33.916,22.108,39.104,24.082c3.64,1.672,7.61,2.506,11.615,2.439
							c4.539,0.095,9.024-1,13.009-3.175c5.072-2.671,37.478-23.23,37.827-23.23c0.817-0.494,1.756-0.748,2.71-0.736
							c1.024,0.005,2.027,0.286,2.904,0.813c4.413,2.439,34.458,20.83,35.736,21.643c2.113,1.275,3.394,3.572,3.369,6.04v65.819
							c-0.237,2.366-1.711,4.429-3.872,5.42c-2.827,1.549-77.434,48.474-87.733,54.204
							C98.285,154.713,96.949,155.087,95.586,155.101"/>
					</g>
					<g id="g79" transform="matrix(3.3097462,0,0,3.3097462,-688.02908,65.088537)">
						
							<linearGradient id="path77_1_" gradientUnits="userSpaceOnUse" x1="76.9226" y1="190.5556" x2="144.9861" y2="228.2417" gradientTransform="matrix(5.5697 0 0 -5.5697 -374.707 1201.3585)">
							<stop  offset="0" style="stop-color:#EE0A3F"/>
							<stop  offset="1" style="stop-color:#EE0A3F;stop-opacity:0"/>
						</linearGradient>
						<path id="path77" inkscape:connector-curvature="0" fill="url(#path77_1_)" d="M95.199,155.101h0.387
							c1.356,0.009,2.691-0.338,3.871-1.007c10.105-5.846,84.907-52.772,87.733-54.204c2.161-0.992,3.635-3.055,3.871-5.42V28.651
							c0.013-1.114-0.239-2.216-0.736-3.213L95.199,77.666V155.101"/>
					</g>
					<g id="g970" transform="matrix(-3.2744849,0,0,3.2744849,-467.18522,65.934126)">
						
							<linearGradient id="path968_1_" gradientUnits="userSpaceOnUse" x1="-51.5301" y1="197.8154" x2="-18.2857" y2="224.5956" gradientTransform="matrix(-5.5104 0 0 -5.5104 -291.2641 1199.4547)">
							<stop  offset="0" style="stop-color:#ED6600"/>
							<stop  offset="1" style="stop-color:#F98200"/>
						</linearGradient>
						<path id="path968" inkscape:connector-curvature="0" fill="url(#path968_1_)" d="M-28.445,155.575h0.387
							c1.356,0.01,2.692-0.338,3.872-1.007c10.105-5.846,84.906-52.771,87.733-54.204c2.161-0.992,3.635-3.054,3.872-5.421V29.124
							c0.013-1.114-0.24-2.215-0.735-3.214l-95.128,52.23V155.575"/>
					</g>
				</g>
			</g>
		</g>
	</g>
</g>
</svg>
